<?xml version="1.0" encoding="UTF-8" standalone="no"?>
<!DOCTYPE svg PUBLIC "-//W3C//DTD SVG 1.1//EN" "http://www.w3.org/Graphics/SVG/1.1/DTD/svg11.dtd">
<svg width="100%" height="100%" viewBox="0 0 370 84" version="1.1" xmlns="http://www.w3.org/2000/svg" xmlns:xlink="http://www.w3.org/1999/xlink" xml:space="preserve" xmlns:serif="http://www.serif.com/" style="fill-rule:evenodd;clip-rule:evenodd;stroke-linejoin:round;stroke-miterlimit:2;">
    <g id="SvgjsG1175" transform="matrix(2.60417,0,0,2.60417,0,0)">
        <g>
            <path d="M16,0C11.905,0 7.81,1.562 4.686,4.686C-1.562,10.934 -1.562,21.065 4.686,27.313C7.81,30.438 11.905,32 16,32C20.095,32 24.19,30.438 27.314,27.314C33.562,21.066 33.562,10.935 27.314,4.687C24.19,1.562 20.095,0 16,0ZM26.607,26.607C23.773,29.44 20.007,31 16,31C11.993,31 8.227,29.44 5.393,26.607C-0.456,20.758 -0.456,11.242 5.393,5.394C8.227,2.56 11.993,1 16,1C20.007,1 23.773,2.56 26.607,5.393C32.455,11.242 32.455,20.758 26.607,26.607Z" style="fill:white;fill-rule:nonzero;"/>
            <g transform="matrix(0.7071,-0.7071,0.7071,0.7071,-4.681,11.5091)">
                <rect x="6.298" y="10.905" width="10.508" height="1" style="fill:white;"/>
            </g>
            <g transform="matrix(0.7071,-0.7071,0.7071,0.7071,-5.4781,13.8675)">
                <rect x="5.469" y="13.046" width="17.063" height="1" style="fill:white;"/>
            </g>
            <g transform="matrix(0.7071,-0.7071,0.7071,0.7071,-6.7239,16.04)">
                <rect x="4.346" y="15.637" width="23.307" height="1" style="fill:white;"/>
            </g>
            <g transform="matrix(0.7071,-0.7071,0.7071,0.7071,-7.6786,18.3333)">
                <rect x="10.126" y="17.936" width="16.33" height="1" style="fill:white;"/>
            </g>
            <g transform="matrix(0.7071,-0.7071,0.7071,0.7071,-8.6902,20.603)">
                <rect x="15.3" y="20.292" width="10.451" height="1" style="fill:white;"/>
            </g>
        </g>
    </g>
    <g id="SvgjsG1176" transform="matrix(3.32327,0,0,3.32327,103,1.90933)">
        <path d="M5.86,4.5C5.86,4.5 5.86,4.24 5.86,4.24L-0,4.24L-0,4.88L3.38,4.88L3.38,20L4.08,20L4.08,4.88L5.88,4.88C5.853,4.667 5.847,4.54 5.86,4.5ZM6.38,4.24L6.38,4.88L7.48,4.88L7.48,4.24L6.38,4.24ZM17.08,20C19.293,20 21.18,19.22 22.74,17.66C23.513,16.9 24.097,16.08 24.49,15.2C24.883,14.32 25.08,13.32 25.08,12.2C25.08,9.973 24.3,8.093 22.74,6.56C21.18,5.04 19.253,4.273 16.96,4.26C15.547,4.273 14.22,4.627 12.98,5.32C11.767,6.027 10.8,7.007 10.08,8.26L10.66,8.58C11.313,7.42 12.2,6.52 13.32,5.88C14.427,5.24 15.64,4.913 16.96,4.9C19.093,4.913 20.867,5.627 22.28,7.04C23.693,8.427 24.407,10.147 24.42,12.2C24.42,13.227 24.24,14.143 23.88,14.95C23.52,15.757 22.993,16.513 22.3,17.22C20.873,18.647 19.133,19.36 17.08,19.36C15.8,19.36 14.64,19.087 13.6,18.54L13.3,19.12C14.433,19.707 15.693,20 17.08,20ZM29.06,4.24L27.68,4.24L27.68,4.88L29.02,4.88C30.66,4.88 31.893,5.353 32.72,6.3C33.547,7.247 33.96,8.48 33.96,10L33.96,10.22C33.96,11.713 33.547,12.933 32.72,13.88C31.893,14.827 30.66,15.3 29.02,15.3L27.68,15.3L27.68,20L28.38,20L28.38,15.96L29.06,15.96C30.9,15.96 32.297,15.417 33.25,14.33C34.203,13.243 34.68,11.88 34.68,10.24L34.68,9.98C34.68,8.34 34.197,6.973 33.23,5.88C32.263,4.787 30.873,4.24 29.06,4.24ZM49.26,4.58L49.26,16.14C49.26,16.5 49.267,16.9 49.28,17.34C49.293,17.78 49.3,18.007 49.3,18.02C49.273,17.98 49.177,17.763 49.01,17.37C48.843,16.977 48.68,16.627 48.52,16.32L48.24,15.78L47.52,15.78L49.72,20L49.9,20L49.9,4.58L49.26,4.58ZM43.64,7.94L43.92,8.48L44.64,8.48L42.42,4.24L42.28,4.24L42.28,19.7L42.9,19.7L42.9,8.1C42.9,7.767 42.893,7.377 42.88,6.93C42.867,6.483 42.86,6.253 42.86,6.24C42.873,6.28 42.967,6.5 43.14,6.9C43.313,7.3 43.48,7.647 43.64,7.94ZM53.06,14.16L53.06,4.8L57.86,4.8L57.86,4.24L52.5,4.24L52.5,14.16L53.06,14.16ZM58.06,20L58.06,19.46L53.06,19.46L53.06,15.32L53.86,15.32L53.86,14.78L52.5,14.78L52.5,20L58.06,20ZM70.62,4.24L68.58,16.86L66.14,4.24L65.78,4.24L64.04,14.26C64.04,14.287 64.043,14.38 64.05,14.54C64.057,14.7 64.07,14.88 64.09,15.08C64.11,15.28 64.13,15.47 64.15,15.65C64.17,15.83 64.187,15.94 64.2,15.98C64.56,14.06 64.85,12.52 65.07,11.36C65.29,10.2 65.493,9.127 65.68,8.14C65.867,7.153 65.96,6.64 65.96,6.6C65.96,6.653 66.093,7.383 66.36,8.79C66.627,10.197 66.92,11.73 67.24,13.39C67.56,15.05 67.987,17.253 68.52,20L68.64,20L71.26,4.24L70.62,4.24ZM61.26,4.24L60.66,4.24L63.28,20L63.38,20L63.68,18.9L61.26,4.24ZM75.94,11.02L77.72,12.68C78.28,13.2 78.72,13.757 79.04,14.35C79.36,14.943 79.52,15.54 79.52,16.14L79.52,16.4C79.533,16.827 79.48,17.207 79.36,17.54L80.1,17.54C80.207,17.18 80.253,16.807 80.24,16.42L80.24,16.14C80.24,15.42 80.057,14.733 79.69,14.08C79.323,13.427 78.813,12.787 78.16,12.16L76.44,10.54C75.893,10.02 75.443,9.533 75.09,9.08C74.737,8.627 74.56,8.06 74.56,7.38L74.56,7.26C74.56,6.553 74.757,5.983 75.15,5.55C75.543,5.117 76.093,4.9 76.8,4.9C77.307,4.9 77.72,4.977 78.04,5.13C78.36,5.283 78.687,5.513 79.02,5.82L79.48,5.3C79.107,4.953 78.723,4.693 78.33,4.52C77.937,4.347 77.427,4.26 76.8,4.26C75.987,4.26 75.297,4.523 74.73,5.05C74.163,5.577 73.88,6.307 73.88,7.24L73.88,7.4C73.88,8.16 74.07,8.81 74.45,9.35C74.83,9.89 75.327,10.447 75.94,11.02L75.94,11.02ZM79.82,18.3L79,18.3C78.533,18.98 77.787,19.327 76.76,19.34C76.413,19.34 76.1,19.3 75.82,19.22L75.82,19.92C76.1,19.973 76.413,20 76.76,20C77.48,20 78.1,19.853 78.62,19.56C79.14,19.267 79.54,18.847 79.82,18.3L79.82,18.3Z" style="fill:white;fill-rule:nonzero;"/>
    </g>
</svg>
